AmstelvarAlpha-YOPQ-max.ufo
<glyph name="parenright" format="1">
  <advance width="598"/>
  <unicode hex="0029"/>
  <outline>
    <contour>
      <point x="530" y="672" type="qcurve" smooth="yes"/>
      <point x="530" y="420"/>
      <point x="247" y="-66"/>
      <point x="89" y="-182" type="qcurve"/>
      <point x="-10" y="-86" type="line"/>
      <point x="118" y="36"/>
      <point x="335" y="436"/>
      <point x="335" y="672" type="qcurve" smooth="yes"/>
      <point x="335" y="908"/>
      <point x="118" y="1308"/>
      <point x="-10" y="1430" type="qcurve"/>
      <point x="89" y="1526" type="line"/>
      <point x="247" y="1410"/>
      <point x="530" y="924"/>
    </contour>
  </outline>
</glyph>
<glyph name="two" format="1">
  <advance width="966"/>
  <unicode hex="0032"/>
  <outline>
    <contour>
      <point x="12" y="0" type="line"/>
      <point x="12" y="122" type="line"/>
      <point x="30" y="250"/>
      <point x="196" y="530"/>
      <point x="400" y="677" type="qcurve" smooth="yes"/>
      <point x="563" y="795"/>
      <point x="698" y="1001"/>
      <point x="698" y="1110" type="qcurve" smooth="yes"/>
      <point x="698" y="1212"/>
      <point x="541" y="1313"/>
      <point x="435" y="1313" type="qcurve" smooth="yes"/>
      <point x="314" y="1313"/>
      <point x="128" y="1234"/>
      <point x="43" y="1170" type="qcurve"/>
      <point x="43" y="1374" type="line"/>
      <point x="103" y="1430"/>
      <point x="325" y="1520"/>
      <point x="486" y="1520" type="qcurve" smooth="yes"/>
      <point x="663" y="1520"/>
      <point x="896" y="1303"/>
      <point x="896" y="1116" type="qcurve" smooth="yes"/>
      <point x="896" y="937"/>
      <point x="677" y="646"/>
      <point x="508" y="529" type="qcurve" smooth="yes"/>
      <point x="360" y="427"/>
      <point x="235" y="264"/>
      <point x="216" y="177" type="qcurve"/>
      <point x="225" y="166" type="line"/>
      <point x="956" y="166" type="line"/>
      <point x="956" y="0" type="line"/>
    </contour>
  </outline>
</glyph>
<glyph name="semicolon" format="1">
  <advance width="656"/>
  <unicode hex="003B"/>
  <outline>
    <contour>
      <point x="153" y="-204" type="line"/>
      <point x="191" y="-171"/>
      <point x="280" y="-78"/>
      <point x="295" y="-11" type="qcurve"/>
      <point x="241" y="-1"/>
      <point x="188" y="62"/>
      <point x="188" y="121" type="qcurve" smooth="yes"/>
      <point x="188" y="179"/>
      <point x="269" y="265"/>
      <point x="332" y="265" type="qcurve" smooth="yes"/>
      <point x="391" y="265"/>
      <point x="476" y="189"/>
      <point x="476" y="112" type="qcurve" smooth="yes"/>
      <point x="476" y="-10"/>
      <point x="329" y="-225"/>
      <point x="231" y="-284" type="qcurve"/>
    </contour>
    <contour>
      <point x="188" y="894" type="qcurve" smooth="yes"/>
      <point x="188" y="952"/>
      <point x="269" y="1038"/>
      <point x="332" y="1038" type="qcurve" smooth="yes"/>
      <point x="395" y="1038"/>
      <point x="476" y="952"/>
      <point x="476" y="894" type="qcurve" smooth="yes"/>
      <point x="476" y="837"/>
      <point x="395" y="751"/>
      <point x="332" y="751" type="qcurve" smooth="yes"/>
      <point x="269" y="751"/>
      <point x="188" y="837"/>
    </contour>
  </outline>
</glyph>
<glyph name="at" format="1">
  <advance width="1664"/>
  <unicode hex="0040"/>
  <outline>
    <contour>
      <point x="60" y="746" type="qcurve" smooth="yes"/>
      <point x="60" y="1068"/>
      <point x="495" y="1520"/>
      <point x="832" y="1520" type="qcurve" smooth="yes"/>
      <point x="1168" y="1520"/>
      <point x="1612" y="1149"/>
      <point x="1612" y="837" type="qcurve" smooth="yes"/>
      <point x="1612" y="592"/>
      <point x="1376" y="352"/>
      <point x="1232" y="352" type="qcurve" smooth="yes"/>
      <point x="1122" y="352"/>
      <point x="981.0" y="444.0"/>
      <point x="982.0" y="584.0" type="qcurve" smooth="yes"/>
      <point x="984" y="834" type="line" smooth="yes"/>
      <point x="985" y="959"/>
      <point x="879" y="1044"/>
      <point x="768" y="1044" type="qcurve" smooth="yes"/>
      <point x="694" y="1044"/>
      <point x="589" y="1009"/>
      <point x="554" y="985" type="qcurve"/>
      <point x="486" y="1076" type="line"/>
      <point x="510" y="1107"/>
      <point x="670" y="1191"/>
      <point x="810" y="1191" type="qcurve"/>
      <point x="949" y="1191"/>
      <point x="1130.0" y="1027.0"/>
      <point x="1132.0" y="825.0" type="qcurve" smooth="yes"/>
      <point x="1136" y="492" type="line"/>
      <point x="1160" y="482"/>
      <point x="1202" y="477"/>
      <point x="1239" y="477" type="qcurve" smooth="yes"/>
      <point x="1346" y="477"/>
      <point x="1469" y="652"/>
      <point x="1469" y="822" type="qcurve" smooth="yes"/>
      <point x="1469" y="1065"/>
      <point x="1133" y="1380"/>
      <point x="844" y="1380" type="qcurve" smooth="yes"/>
      <point x="560" y="1380"/>
      <point x="216" y="1048"/>
      <point x="218" y="761" type="qcurve" smooth="yes"/>
      <point x="220" y="471"/>
      <point x="559" y="89"/>
      <point x="845" y="89" type="qcurve" smooth="yes"/>
      <point x="969" y="89"/>
      <point x="1163" y="152"/>
      <point x="1217" y="187" type="qcurve"/>
      <point x="1273" y="108" type="line"/>
      <point x="1194" y="43"/>
      <point x="967.0" y="-30.0"/>
      <point x="840.0" y="-30.0" type="qcurve" smooth="yes"/>
      <point x="502.0" y="-30.0"/>
      <point x="60" y="399"/>
    </contour>
    <contour>
      <point x="457" y="569" type="qcurve" smooth="yes"/>
      <point x="457" y="669"/>
      <point x="709" y="854"/>
      <point x="1007" y="904" type="qcurve"/>
      <point x="1015" y="775" type="line"/>
      <point x="839" y="754"/>
      <point x="610" y="666"/>
      <point x="610" y="586" type="qcurve" smooth="yes"/>
      <point x="610" y="524"/>
      <point x="708" y="472"/>
      <point x="787" y="472" type="qcurve" smooth="yes"/>
      <point x="871" y="472"/>
      <point x="994" y="544"/>
      <point x="1003" y="576" type="qcurve"/>
      <point x="1051" y="568" type="line"/>
      <point x="1053" y="487"/>
      <point x="860" y="339"/>
      <point x="729" y="339" type="qcurve" smooth="yes"/>
      <point x="594" y="339"/>
      <point x="457" y="468"/>
    </contour>
  </outline>
</glyph>
<glyph name="B" format="1">
  <advance width="1269"/>
  <unicode hex="0042"/>
  <outline>
    <contour>
      <point x="82" y="0" type="line"/>
      <point x="82" y="170" type="line"/>
      <point x="290" y="206" type="line"/>
      <point x="292" y="784" type="line"/>
      <point x="290" y="1282" type="line"/>
      <point x="82" y="1316" type="line"/>
      <point x="82" y="1500" type="line"/>
      <point x="685" y="1500" type="line" smooth="yes"/>
      <point x="897" y="1500"/>
      <point x="1101" y="1315"/>
      <point x="1101" y="1172" type="qcurve" smooth="yes"/>
      <point x="1101" y="1037"/>
      <point x="974" y="854"/>
      <point x="862" y="830" type="qcurve"/>
      <point x="862" y="823" type="line"/>
      <point x="999" y="794"/>
      <point x="1193" y="604"/>
      <point x="1193" y="433" type="qcurve" smooth="yes"/>
      <point x="1193" y="246"/>
      <point x="932" y="0"/>
      <point x="701" y="0" type="qcurve" smooth="yes"/>
    </contour>
    <contour>
      <point x="470" y="205" type="line"/>
      <point x="513" y="185" type="line"/>
      <point x="645" y="185" type="line"/>
      <point x="831" y="185"/>
      <point x="1007" y="315"/>
      <point x="1007" y="438" type="qcurve" smooth="yes"/>
      <point x="1007" y="562"/>
      <point x="854" y="696"/>
      <point x="711" y="696" type="qcurve" smooth="yes"/>
      <point x="468" y="696" type="line"/>
      <point x="468" y="684" type="line"/>
    </contour>
    <contour>
      <point x="469" y="893" type="line"/>
      <point x="468" y="872" type="line"/>
      <point x="635" y="872" type="line" smooth="yes"/>
      <point x="777" y="872"/>
      <point x="922" y="993"/>
      <point x="922" y="1112" type="qcurve" smooth="yes"/>
      <point x="922" y="1210"/>
      <point x="781" y="1300"/>
      <point x="645" y="1300" type="qcurve"/>
      <point x="501" y="1300" type="line"/>
      <point x="472" y="1282" type="line"/>
    </contour>
  </outline>
</glyph>
<glyph name="E" format="1">
  <advance width="1260"/>
  <unicode hex="0045"/>
  <outline>
    <contour>
      <point x="82" y="0" type="line"/>
      <point x="82" y="170" type="line"/>
      <point x="290" y="207" type="line"/>
      <point x="292" y="783" type="line"/>
      <point x="290" y="1282" type="line"/>
      <point x="82" y="1316" type="line"/>
      <point x="82" y="1500" type="line"/>
      <point x="1146" y="1500" type="line"/>
      <point x="1146" y="1122" type="line"/>
      <point x="976" y="1122" type="line"/>
      <point x="941" y="1312" type="line"/>
      <point x="538" y="1312" type="line"/>
      <point x="469" y="1292" type="line"/>
      <point x="467" y="783" type="line"/>
      <point x="469" y="202" type="line"/>
      <point x="539" y="178" type="line"/>
      <point x="1004" y="178" type="line"/>
      <point x="1080" y="408" type="line"/>
      <point x="1250" y="408" type="line"/>
      <point x="1210" y="0" type="line"/>
    </contour>
    <contour>
      <point x="381" y="703" type="line"/>
      <point x="381" y="864" type="line"/>
      <point x="805" y="874" type="line"/>
      <point x="840" y="1034" type="line"/>
      <point x="1000" y="1034" type="line"/>
      <point x="1000" y="538" type="line"/>
      <point x="840" y="538" type="line"/>
      <point x="805" y="693" type="line"/>
    </contour>
  </outline>
</glyph>
<glyph name="F" format="1">
  <advance width="1126"/>
  <unicode hex="0046"/>
  <outline>
    <contour>
      <point x="82" y="0" type="line"/>
      <point x="82" y="170" type="line"/>
      <point x="290" y="207" type="line"/>
      <point x="292" y="760" type="line"/>
      <point x="290" y="1282" type="line"/>
      <point x="82" y="1316" type="line"/>
      <point x="82" y="1500" type="line"/>
      <point x="1116" y="1500" type="line"/>
      <point x="1116" y="1112" type="line"/>
      <point x="946" y="1112" type="line"/>
      <point x="911" y="1312" type="line"/>
      <point x="539" y="1312" type="line"/>
      <point x="470" y="1292" type="line"/>
      <point x="468" y="760" type="line"/>
      <point x="470" y="202" type="line"/>
      <point x="698" y="170" type="line"/>
      <point x="698" y="0" type="line"/>
    </contour>
    <contour>
      <point x="380" y="674" type="line"/>
      <point x="380" y="846" type="line"/>
      <point x="785" y="853" type="line"/>
      <point x="820" y="988" type="line"/>
      <point x="970" y="988" type="line"/>
      <point x="970" y="522" type="line"/>
      <point x="820" y="522" type="line"/>
      <point x="785" y="667" type="line"/>
    </contour>
  </outline>
</glyph>
<glyph name="K" format="1">
  <advance width="1440"/>
  <unicode hex="004B"/>
  <outline>
    <contour>
      <point x="82" y="0" type="line"/>
      <point x="82" y="170" type="line"/>
      <point x="290" y="205" type="line"/>
      <point x="292" y="754" type="line"/>
      <point x="290" y="1282" type="line"/>
      <point x="82" y="1316" type="line"/>
      <point x="82" y="1500" type="line"/>
      <point x="678" y="1500" type="line"/>
      <point x="678" y="1316" type="line"/>
      <point x="470" y="1282" type="line"/>
      <point x="468" y="754" type="line"/>
      <point x="470" y="205" type="line"/>
      <point x="678" y="170" type="line"/>
      <point x="678" y="0" type="line"/>
    </contour>
    <contour>
      <point x="380" y="471" type="line"/>
      <point x="380" y="684" type="line"/>
      <point x="937" y="1282" type="line"/>
      <point x="784" y="1316" type="line"/>
      <point x="784" y="1500" type="line"/>
      <point x="1350" y="1500" type="line"/>
      <point x="1350" y="1316" type="line"/>
      <point x="1152" y="1268" type="line"/>
    </contour>
    <contour>
      <point x="624" y="811" type="line"/>
      <point x="737" y="934" type="line"/>
      <point x="1269" y="205" type="line"/>
      <point x="1476" y="170" type="line"/>
      <point x="1476" y="0" type="line"/>
      <point x="893" y="0" type="line"/>
      <point x="893" y="170" type="line"/>
      <point x="1061" y="205" type="line"/>
    </contour>
  </outline>
</glyph>
<glyph name="M" format="1">
  <advance width="2116"/>
  <unicode hex="004D"/>
  <outline>
    <contour>
      <point x="82" y="0" type="line"/>
      <point x="82" y="170" type="line"/>
      <point x="290" y="205" type="line"/>
      <point x="292" y="754" type="line"/>
      <point x="290" y="1282" type="line"/>
      <point x="82" y="1316" type="line"/>
      <point x="82" y="1500" type="line"/>
      <point x="544" y="1500" type="line"/>
      <point x="821" y="810" type="line"/>
      <point x="1040" y="286" type="line"/>
      <point x="1257" y="823" type="line"/>
      <point x="1520" y="1500" type="line"/>
      <point x="2034" y="1500" type="line"/>
      <point x="2034" y="1316" type="line"/>
      <point x="1826" y="1282" type="line"/>
      <point x="1824" y="754" type="line"/>
      <point x="1826" y="205" type="line"/>
      <point x="2034" y="170" type="line"/>
      <point x="2034" y="0" type="line"/>
      <point x="1408" y="0" type="line"/>
      <point x="1408" y="170" type="line"/>
      <point x="1646" y="205" type="line"/>
      <point x="1648" y="754" type="line"/>
      <point x="1646" y="1299" type="line"/>
      <point x="1422" y="744" type="line"/>
      <point x="1117" y="-8" type="line"/>
      <point x="955" y="-8" type="line"/>
      <point x="665" y="741" type="line"/>
      <point x="461" y="1231" type="line"/>
      <point x="471" y="754" type="line"/>
      <point x="473" y="205" type="line"/>
      <point x="691" y="170" type="line"/>
      <point x="691" y="0" type="line"/>
    </contour>
  </outline>
</glyph>
<glyph name="N" format="1">
  <advance width="1610"/>
  <unicode hex="004E"/>
  <outline>
    <contour>
      <point x="82" y="0" type="line"/>
      <point x="82" y="170" type="line"/>
      <point x="270" y="205" type="line"/>
      <point x="272" y="754" type="line"/>
      <point x="270" y="1282" type="line"/>
      <point x="82" y="1316" type="line"/>
      <point x="82" y="1500" type="line"/>
      <point x="508" y="1500" type="line"/>
      <point x="895" y="825" type="line"/>
      <point x="1179" y="380" type="line"/>
      <point x="1172" y="754" type="line"/>
      <point x="1170" y="1282" type="line"/>
      <point x="982" y="1316" type="line"/>
      <point x="982" y="1500" type="line"/>
      <point x="1538" y="1500" type="line"/>
      <point x="1538" y="1316" type="line"/>
      <point x="1350" y="1282" type="line"/>
      <point x="1348" y="754" type="line"/>
      <point x="1344" y="0" type="line"/>
      <point x="1202" y="0" type="line"/>
      <point x="752" y="747" type="line"/>
      <point x="441" y="1261" type="line"/>
      <point x="448" y="754" type="line"/>
      <point x="450" y="205" type="line"/>
      <point x="628" y="170" type="line"/>
      <point x="628" y="0" type="line"/>
    </contour>
  </outline>
</glyph>
<glyph name="Q" format="1">
  <advance width="1664"/>
  <unicode hex="0051"/>
  <outline>
    <contour>
      <point x="80" y="746" type="qcurve" smooth="yes"/>
      <point x="80" y="1068"/>
      <point x="513" y="1520"/>
      <point x="832" y="1520" type="qcurve" smooth="yes"/>
      <point x="1151" y="1520"/>
      <point x="1584" y="1097"/>
      <point x="1584" y="754" type="qcurve" smooth="yes"/>
      <point x="1584" y="404"/>
      <point x="1134" y="-20"/>
      <point x="832" y="-20" type="qcurve" smooth="yes"/>
      <point x="502" y="-20"/>
      <point x="80" y="419"/>
    </contour>
    <contour>
      <point x="271" y="773" type="qcurve" smooth="yes"/>
      <point x="273" y="521"/>
      <point x="580" y="176"/>
      <point x="830" y="176" type="qcurve" smooth="yes"/>
      <point x="1099" y="176"/>
      <point x="1391" y="492"/>
      <point x="1393" y="751" type="qcurve" smooth="yes"/>
      <point x="1395" y="994"/>
      <point x="1087" y="1310"/>
      <point x="834" y="1310" type="qcurve" smooth="yes"/>
      <point x="561" y="1310"/>
      <point x="269" y="1024"/>
    </contour>
    <contour>
      <point x="238" y="-224" type="line"/>
      <point x="300" y="-131"/>
      <point x="480" y="-39"/>
      <point x="568" y="-39" type="qcurve"/>
      <point x="1212" y="-251" type="line"/>
      <point x="1272" y="-251"/>
      <point x="1370" y="-148"/>
      <point x="1403" y="-94" type="qcurve"/>
      <point x="1565" y="-184" type="line"/>
      <point x="1515" y="-288"/>
      <point x="1371" y="-429"/>
      <point x="1239" y="-429" type="qcurve"/>
      <point x="644" y="-229" type="line"/>
      <point x="573" y="-220"/>
      <point x="439" y="-282"/>
      <point x="376" y="-363" type="qcurve"/>
    </contour>
    <contour>
      <point x="464" y="-110" type="line"/>
      <point x="582" y="54" type="line"/>
      <point x="588" y="70"/>
      <point x="598" y="84"/>
      <point x="612" y="96" type="qcurve"/>
      <point x="649" y="87"/>
      <point x="745" y="35"/>
      <point x="776" y="16" type="qcurve"/>
      <point x="768" y="2"/>
      <point x="758" y="-13"/>
      <point x="746" y="-27" type="qcurve"/>
      <point x="633" y="-191" type="line"/>
    </contour>
  </outline>
</glyph>
<glyph name="R" format="1">
  <advance width="1400"/>
  <unicode hex="0052"/>
  <outline>
    <contour>
      <point x="82" y="0" type="line"/>
      <point x="82" y="170" type="line"/>
      <point x="290" y="206" type="line"/>
      <point x="292" y="754" type="line"/>
      <point x="290" y="1282" type="line"/>
      <point x="82" y="1316" type="line"/>
      <point x="82" y="1500" type="line"/>
      <point x="725" y="1500" type="line" smooth="yes"/>
      <point x="937" y="1500"/>
      <point x="1142" y="1312"/>
      <point x="1142" y="1135" type="qcurve" smooth="yes"/>
      <point x="1142" y="941"/>
      <point x="891" y="696"/>
      <point x="723" y="696" type="qcurve" smooth="yes"/>
      <point x="655" y="696"/>
      <point x="437" y="706"/>
      <point x="380" y="711" type="qcurve"/>
      <point x="380" y="868" type="line"/>
      <point x="495" y="868" type="line"/>
      <point x="646" y="868" type="line" smooth="yes"/>
      <point x="802" y="868"/>
      <point x="944" y="1000"/>
      <point x="944" y="1110" type="qcurve" smooth="yes"/>
      <point x="944" y="1207"/>
      <point x="821" y="1312"/>
      <point x="684" y="1312" type="qcurve" smooth="yes"/>
      <point x="501" y="1312" type="line"/>
      <point x="472" y="1294" type="line"/>
      <point x="468" y="754" type="line"/>
      <point x="470" y="206" type="line"/>
      <point x="686" y="170" type="line"/>
      <point x="686" y="0" type="line"/>
    </contour>
    <contour>
      <point x="640" y="750" type="line"/>
      <point x="773" y="848" type="line"/>
      <point x="1091" y="373" type="line" smooth="yes"/>
      <point x="1176" y="246"/>
      <point x="1342" y="171"/>
      <point x="1426" y="170" type="qcurve"/>
      <point x="1426" y="0" type="line"/>
      <point x="1171" y="0" type="line"/>
      <point x="1094" y="75" type="line"/>
    </contour>
  </outline>
</glyph>
<glyph name="U" format="1">
  <advance width="1632"/>
  <unicode hex="0055"/>
  <outline>
    <contour>
      <point x="74" y="1316" type="line"/>
      <point x="74" y="1500" type="line"/>
      <point x="670" y="1500" type="line"/>
      <point x="670" y="1316" type="line"/>
      <point x="463" y="1282" type="line"/>
      <point x="458" y="794" type="line"/>
      <point x="462" y="544" type="line"/>
      <point x="462" y="367"/>
      <point x="638" y="166"/>
      <point x="833" y="166" type="qcurve" smooth="yes"/>
      <point x="1007" y="166"/>
      <point x="1190" y="354"/>
      <point x="1192" y="564" type="qcurve" smooth="yes"/>
      <point x="1194" y="794" type="line"/>
      <point x="1192" y="1282" type="line"/>
      <point x="974" y="1316" type="line"/>
      <point x="974" y="1500" type="line"/>
      <point x="1580" y="1500" type="line"/>
      <point x="1580" y="1316" type="line"/>
      <point x="1382" y="1282" type="line"/>
      <point x="1380" y="794" type="line"/>
      <point x="1383" y="521" type="line" smooth="yes"/>
      <point x="1386" y="261"/>
      <point x="1077" y="-31"/>
      <point x="838" y="-31" type="qcurve" smooth="yes"/>
      <point x="581" y="-31"/>
      <point x="279" y="242"/>
      <point x="282" y="481" type="qcurve"/>
      <point x="284" y="794" type="line"/>
      <point x="282" y="1282" type="line"/>
    </contour>
  </outline>
</glyph>
<glyph name="V" format="1">
  <advance width="1426"/>
  <unicode hex="0056"/>
  <outline>
    <contour>
      <point x="-30" y="1316" type="line"/>
      <point x="-30" y="1500" type="line"/>
      <point x="524" y="1500" type="line"/>
      <point x="524" y="1316" type="line"/>
      <point x="356" y="1275" type="line"/>
      <point x="533" y="801" type="line"/>
      <point x="734" y="306" type="line"/>
      <point x="931" y="813" type="line"/>
      <point x="1097" y="1282" type="line"/>
      <point x="910" y="1316" type="line"/>
      <point x="910" y="1500" type="line"/>
      <point x="1476" y="1500" type="line"/>
      <point x="1476" y="1316" type="line"/>
      <point x="1298" y="1277" type="line"/>
      <point x="1095" y="746" type="line"/>
      <point x="814" y="-8" type="line"/>
      <point x="652" y="-8" type="line"/>
      <point x="365" y="740" type="line"/>
      <point x="158" y="1277" type="line"/>
    </contour>
  </outline>
</glyph>
<glyph name="W" format="1">
  <advance width="2102"/>
  <unicode hex="0057"/>
  <outline>
    <contour>
      <point x="-30" y="1316" type="line"/>
      <point x="-30" y="1500" type="line"/>
      <point x="524" y="1500" type="line"/>
      <point x="524" y="1316" type="line"/>
      <point x="346" y="1275" type="line"/>
      <point x="514" y="801" type="line"/>
      <point x="694" y="287" type="line"/>
      <point x="890" y="824" type="line"/>
      <point x="1030" y="1222" type="line"/>
      <point x="1120" y="966" type="line"/>
      <point x="1044" y="754" type="line"/>
      <point x="769" y="-8" type="line"/>
      <point x="624" y="-8" type="line"/>
      <point x="354" y="740" type="line"/>
      <point x="148" y="1277" type="line"/>
    </contour>
    <contour>
      <point x="718" y="1324" type="line"/>
      <point x="718" y="1500" type="line"/>
      <point x="1252" y="1500" type="line"/>
      <point x="1252" y="1324" type="line"/>
      <point x="1094" y="1283" type="line"/>
      <point x="1247" y="800" type="line"/>
      <point x="1413" y="296" type="line"/>
      <point x="1597" y="817" type="line"/>
      <point x="1753" y="1282" type="line"/>
      <point x="1556" y="1316" type="line"/>
      <point x="1556" y="1500" type="line"/>
      <point x="2152" y="1500" type="line"/>
      <point x="2152" y="1316" type="line"/>
      <point x="1954" y="1277" type="line"/>
      <point x="1764" y="750" type="line"/>
      <point x="1491" y="-8" type="line"/>
      <point x="1339" y="-8" type="line"/>
      <point x="1091" y="735" type="line"/>
      <point x="896" y="1285" type="line"/>
    </contour>
  </outline>
</glyph>
<glyph name="X" format="1">
  <advance width="1346"/>
  <unicode hex="0058"/>
  <outline>
    <contour>
      <point x="-20" y="0" type="line"/>
      <point x="-20" y="170" type="line"/>
      <point x="158" y="205" type="line"/>
      <point x="597" y="844" type="line"/>
      <point x="607" y="844" type="line"/>
      <point x="889" y="1290" type="line"/>
      <point x="720" y="1316" type="line"/>
      <point x="720" y="1500" type="line"/>
      <point x="1286" y="1500" type="line"/>
      <point x="1286" y="1316" type="line"/>
      <point x="1098" y="1285" type="line"/>
      <point x="728" y="737" type="line"/>
      <point x="718" y="737" type="line"/>
      <point x="369" y="200" type="line"/>
      <point x="546" y="170" type="line"/>
      <point x="546" y="0" type="line"/>
    </contour>
    <contour>
      <point x="30" y="1316" type="line"/>
      <point x="30" y="1500" type="line"/>
      <point x="612" y="1500" type="line"/>
      <point x="612" y="1316" type="line"/>
      <point x="439" y="1283" type="line"/>
      <point x="715" y="866" type="line"/>
      <point x="1176" y="205" type="line"/>
      <point x="1386" y="170" type="line"/>
      <point x="1386" y="0" type="line"/>
      <point x="800" y="0" type="line"/>
      <point x="800" y="170" type="line"/>
      <point x="973" y="205" type="line"/>
      <point x="605" y="742" type="line"/>
      <point x="236" y="1285" type="line"/>
    </contour>
  </outline>
</glyph>
<glyph name="Y" format="1">
  <advance width="1266"/>
  <unicode hex="0059"/>
  <outline>
    <contour>
      <point x="-30" y="1316" type="line"/>
      <point x="-30" y="1500" type="line"/>
      <point x="537" y="1500" type="line"/>
      <point x="537" y="1316" type="line"/>
      <point x="360" y="1281" type="line"/>
      <point x="488" y="1055" type="line"/>
      <point x="629" y="822" type="line"/>
      <point x="764" y="1056" type="line"/>
      <point x="884" y="1288" type="line"/>
      <point x="687" y="1316" type="line"/>
      <point x="687" y="1500" type="line"/>
      <point x="1296" y="1500" type="line"/>
      <point x="1296" y="1316" type="line"/>
      <point x="1108" y="1289" type="line"/>
      <point x="943" y="1011" type="line"/>
      <point x="723" y="622" type="line"/>
      <point x="725" y="205" type="line"/>
      <point x="943" y="170" type="line"/>
      <point x="943" y="0" type="line"/>
      <point x="324" y="0" type="line"/>
      <point x="324" y="170" type="line"/>
      <point x="545" y="205" type="line"/>
      <point x="547" y="627" type="line"/>
      <point x="345" y="978" type="line"/>
      <point x="152" y="1290" type="line"/>
    </contour>
  </outline>
</glyph>
<glyph name="Z" format="1">
  <advance width="1166"/>
  <unicode hex="005A"/>
  <outline>
    <contour>
      <point x="70" y="0" type="line"/>
      <point x="20" y="122" type="line"/>
      <point x="510" y="802" type="line"/>
      <point x="857" y="1306" type="line"/>
      <point x="843" y="1322" type="line"/>
      <point x="298" y="1322" type="line"/>
      <point x="262" y="1048" type="line"/>
      <point x="70" y="1048" type="line"/>
      <point x="70" y="1500" type="line"/>
      <point x="1081" y="1500" type="line"/>
      <point x="1081" y="1349" type="line"/>
      <point x="646" y="722" type="line"/>
      <point x="266" y="184" type="line"/>
      <point x="280" y="168" type="line"/>
      <point x="910" y="168" type="line"/>
      <point x="976" y="408" type="line"/>
      <point x="1156" y="408" type="line"/>
      <point x="1116" y="0" type="line"/>
    </contour>
  </outline>
</glyph>
<glyph name="a" format="1">
  <advance width="1032"/>
  <unicode hex="0061"/>
  <outline>
    <contour>
      <point x="38" y="283" type="qcurve" smooth="yes"/>
      <point x="38" y="413"/>
      <point x="322" y="631"/>
      <point x="686" y="693" type="qcurve"/>
      <point x="695" y="542" type="line"/>
      <point x="468" y="513"/>
      <point x="218" y="392"/>
      <point x="218" y="299" type="qcurve" smooth="yes"/>
      <point x="218" y="223"/>
      <point x="345" y="145"/>
      <point x="430" y="145" type="qcurve" smooth="yes"/>
      <point x="520" y="145"/>
      <point x="665" y="238"/>
      <point x="674" y="280" type="qcurve"/>
      <point x="738" y="264" type="line"/>
      <point x="740" y="165"/>
      <point x="513" y="-15"/>
      <point x="358" y="-15" type="qcurve" smooth="yes"/>
      <point x="200" y="-15"/>
      <point x="38" y="152"/>
    </contour>
    <contour>
      <point x="83" y="872" type="line"/>
      <point x="109" y="919"/>
      <point x="293" y="1022"/>
      <point x="436" y="1022" type="qcurve" smooth="yes"/>
      <point x="619" y="1022"/>
      <point x="830" y="823"/>
      <point x="833" y="577" type="qcurve" smooth="yes"/>
      <point x="838" y="195" type="line"/>
      <point x="986" y="160" type="line"/>
      <point x="986" y="0" type="line"/>
      <point x="739" y="0" type="line"/>
      <point x="688" y="60" type="line"/>
      <point x="668" y="162" type="line"/>
      <point x="671" y="587" type="line" smooth="yes"/>
      <point x="672" y="718"/>
      <point x="534" y="822"/>
      <point x="400" y="822" type="qcurve" smooth="yes"/>
      <point x="308" y="822"/>
      <point x="175" y="781"/>
      <point x="133" y="760" type="qcurve"/>
    </contour>
  </outline>
</glyph>
<glyph name="b" format="1">
  <advance width="1158"/>
  <unicode hex="0062"/>
  <outline>
    <contour>
      <point x="0" y="1335" type="line"/>
      <point x="0" y="1500" type="line"/>
      <point x="278" y="1534" type="line"/>
      <point x="309" y="1534" type="line"/>
      <point x="337" y="1502" type="line"/>
      <point x="334" y="428" type="line"/>
      <point x="336" y="88" type="line"/>
      <point x="250" y="0" type="line"/>
      <point x="167" y="0" type="line"/>
      <point x="178" y="427" type="line"/>
      <point x="167" y="1305" type="line"/>
    </contour>
    <contour>
      <point x="272" y="132" type="qcurve"/>
      <point x="330" y="286" type="line"/>
      <point x="362" y="235"/>
      <point x="512" y="162"/>
      <point x="615" y="162" type="qcurve" smooth="yes"/>
      <point x="751" y="162"/>
      <point x="906" y="342"/>
      <point x="906" y="500" type="qcurve" smooth="yes"/>
      <point x="906" y="651"/>
      <point x="752" y="821"/>
      <point x="620" y="821" type="qcurve" smooth="yes"/>
      <point x="516" y="821"/>
      <point x="372" y="748"/>
      <point x="330" y="690" type="qcurve"/>
      <point x="260" y="804" type="line"/>
      <point x="305" y="896"/>
      <point x="506" y="1020"/>
      <point x="660" y="1020" type="qcurve" smooth="yes"/>
      <point x="854" y="1020"/>
      <point x="1090" y="754"/>
      <point x="1090" y="530" type="qcurve" smooth="yes"/>
      <point x="1090" y="286"/>
      <point x="845" y="-12"/>
      <point x="616" y="-12" type="qcurve" smooth="yes"/>
      <point x="494" y="-12"/>
      <point x="304" y="80"/>
    </contour>
  </outline>
</glyph>
<glyph name="d" format="1">
  <advance width="1207"/>
  <unicode hex="0064"/>
  <outline>
    <contour>
      <point x="68" y="478" type="qcurve" smooth="yes"/>
      <point x="68" y="722"/>
      <point x="337" y="1020"/>
      <point x="561" y="1020" type="qcurve" smooth="yes"/>
      <point x="669" y="1020"/>
      <point x="866" y="951"/>
      <point x="898" y="902" type="qcurve"/>
      <point x="849" y="732" type="line"/>
      <point x="817" y="775"/>
      <point x="681" y="827"/>
      <point x="582" y="827" type="qcurve" smooth="yes"/>
      <point x="431" y="827"/>
      <point x="252" y="630"/>
      <point x="252" y="486" type="qcurve" smooth="yes"/>
      <point x="252" y="335"/>
      <point x="416" y="166"/>
      <point x="549" y="166" type="qcurve" smooth="yes"/>
      <point x="653" y="166"/>
      <point x="808" y="246"/>
      <point x="850" y="312" type="qcurve"/>
      <point x="913" y="204" type="line"/>
      <point x="867" y="112"/>
      <point x="659" y="-9"/>
      <point x="506" y="-9" type="qcurve" smooth="yes"/>
      <point x="314" y="-9"/>
      <point x="68" y="254"/>
    </contour>
    <contour>
      <point x="665" y="1336" type="line"/>
      <point x="665" y="1500" type="line"/>
      <point x="943" y="1534" type="line"/>
      <point x="974" y="1534" type="line"/>
      <point x="1002" y="1502" type="line"/>
      <point x="999" y="538" type="line"/>
      <point x="1008" y="195" type="line"/>
      <point x="1157" y="160" type="line"/>
      <point x="1157" y="0" type="line"/>
      <point x="912" y="0" type="line"/>
      <point x="861" y="60" type="line"/>
      <point x="841" y="162" type="line"/>
      <point x="843" y="537" type="line"/>
      <point x="832" y="1306" type="line"/>
    </contour>
  </outline>
</glyph>
<glyph name="g" format="1">
  <advance width="1048"/>
  <unicode hex="0067"/>
  <outline>
    <contour>
      <point x="24" y="-254" type="qcurve" smooth="yes"/>
      <point x="24" y="-161"/>
      <point x="133" y="-47"/>
      <point x="216" y="-6" type="qcurve"/>
      <point x="301" y="-63" type="line"/>
      <point x="256" y="-89"/>
      <point x="190" y="-155"/>
      <point x="190" y="-207" type="qcurve" smooth="yes"/>
      <point x="190" y="-271"/>
      <point x="354" y="-358"/>
      <point x="527" y="-358" type="qcurve" smooth="yes"/>
      <point x="704" y="-358"/>
      <point x="866" y="-285"/>
      <point x="866" y="-213" type="qcurve" smooth="yes"/>
      <point x="866" y="-180"/>
      <point x="797" y="-129"/>
      <point x="533" y="-129" type="qcurve" smooth="yes"/>
      <point x="347" y="-129"/>
      <point x="84" y="-22"/>
      <point x="84" y="118" type="qcurve" smooth="yes"/>
      <point x="84" y="217"/>
      <point x="220" y="348"/>
      <point x="317" y="375" type="qcurve"/>
      <point x="381" y="268" type="line"/>
      <point x="320" y="241"/>
      <point x="250" y="187"/>
      <point x="250" y="139" type="qcurve" smooth="yes"/>
      <point x="250" y="92"/>
      <point x="358" y="34"/>
      <point x="558" y="34" type="qcurve" smooth="yes"/>
      <point x="814" y="34"/>
      <point x="1057" y="-59"/>
      <point x="1057" y="-182" type="qcurve"/>
      <point x="1057" y="-320"/>
      <point x="817" y="-518"/>
      <point x="521" y="-518" type="qcurve"/>
      <point x="273" y="-518"/>
      <point x="24" y="-378"/>
    </contour>
    <contour>
      <point x="105" y="629" type="qcurve" smooth="yes"/>
      <point x="105" y="800"/>
      <point x="331" y="1022"/>
      <point x="514" y="1022" type="qcurve" smooth="yes"/>
      <point x="698" y="1022"/>
      <point x="926" y="816"/>
      <point x="926" y="634" type="qcurve" smooth="yes"/>
      <point x="926" y="463"/>
      <point x="701" y="217"/>
      <point x="519" y="217" type="qcurve" smooth="yes"/>
      <point x="335" y="217"/>
      <point x="105" y="444"/>
    </contour>
    <contour>
      <point x="280" y="633" type="qcurve" smooth="yes"/>
      <point x="280" y="515"/>
      <point x="409" y="390"/>
      <point x="514" y="390" type="qcurve" smooth="yes"/>
      <point x="627" y="390"/>
      <point x="749" y="505"/>
      <point x="749" y="624" type="qcurve" smooth="yes"/>
      <point x="749" y="722"/>
      <point x="621" y="837"/>
      <point x="516" y="837" type="qcurve" smooth="yes"/>
      <point x="404" y="837"/>
      <point x="280" y="734"/>
    </contour>
    <contour>
      <point x="624" y="855" type="line"/>
      <point x="609" y="1000" type="line"/>
      <point x="1072" y="1000" type="line"/>
      <point x="1072" y="795" type="line"/>
    </contour>
  </outline>
</glyph>
<glyph name="n" format="1">
  <advance width="1264"/>
  <unicode hex="006E"/>
  <outline>
    <contour>
      <point x="76" y="0" type="line"/>
      <point x="76" y="160" type="line"/>
      <point x="224" y="195" type="line"/>
      <point x="226" y="527" type="line"/>
      <point x="224" y="762" type="line"/>
      <point x="76" y="792" type="line"/>
      <point x="76" y="966" type="line"/>
      <point x="334" y="1000" type="line"/>
      <point x="369" y="973" type="line"/>
      <point x="394" y="872" type="line"/>
      <point x="392" y="527" type="line"/>
      <point x="394" y="195" type="line"/>
      <point x="532" y="160" type="line"/>
      <point x="532" y="0" type="line"/>
    </contour>
    <contour>
      <point x="389" y="664" type="qcurve"/>
      <point x="332" y="784" type="line"/>
      <point x="379" y="886"/>
      <point x="607" y="1021"/>
      <point x="734" y="1021" type="qcurve" smooth="yes"/>
      <point x="895" y="1021"/>
      <point x="1050" y="872"/>
      <point x="1050" y="742" type="qcurve" smooth="yes"/>
      <point x="1050" y="668"/>
      <point x="1045" y="527"/>
      <point x="1045" y="527" type="qcurve"/>
      <point x="1050" y="195" type="line"/>
      <point x="1198" y="160" type="line"/>
      <point x="1198" y="0" type="line"/>
      <point x="722" y="0" type="line"/>
      <point x="722" y="160" type="line"/>
      <point x="880" y="195" type="line"/>
      <point x="882" y="527" type="line"/>
      <point x="882" y="647" type="line" smooth="yes"/>
      <point x="882" y="730"/>
      <point x="774" y="822"/>
      <point x="685" y="822" type="qcurve" smooth="yes"/>
      <point x="594" y="822"/>
      <point x="433" y="734"/>
    </contour>
  </outline>
</glyph>
<glyph name="s" format="1">
  <advance width="872"/>
  <unicode hex="0073"/>
  <outline>
    <contour>
      <point x="42" y="0" type="line"/>
      <point x="42" y="369" type="line"/>
      <point x="219" y="369" type="line"/>
      <point x="266" y="118" type="line"/>
      <point x="183" y="0" type="line"/>
    </contour>
    <contour>
      <point x="89" y="759" type="qcurve" smooth="yes"/>
      <point x="89" y="869"/>
      <point x="247" y="1022"/>
      <point x="416" y="1022" type="qcurve" smooth="yes"/>
      <point x="530" y="1022"/>
      <point x="672" y="955"/>
      <point x="714" y="912" type="qcurve"/>
      <point x="636" y="780" type="line"/>
      <point x="605" y="798"/>
      <point x="478" y="847"/>
      <point x="411" y="847" type="qcurve" smooth="yes"/>
      <point x="324" y="847"/>
      <point x="241" y="790"/>
      <point x="241" y="752" type="qcurve"/>
      <point x="241" y="710"/>
      <point x="324" y="658"/>
      <point x="485" y="613" type="qcurve" smooth="yes"/>
      <point x="636" y="571"/>
      <point x="824" y="432"/>
      <point x="824" y="296" type="qcurve" smooth="yes"/>
      <point x="824" y="160"/>
      <point x="630" y="-20"/>
      <point x="463" y="-20" type="qcurve" smooth="yes"/>
      <point x="319" y="-20"/>
      <point x="123" y="91"/>
      <point x="57" y="186" type="qcurve"/>
      <point x="186" y="271" type="line"/>
      <point x="206" y="227"/>
      <point x="363" y="146"/>
      <point x="454" y="146" type="qcurve" smooth="yes"/>
      <point x="557" y="146"/>
      <point x="670" y="220"/>
      <point x="670" y="283" type="qcurve" smooth="yes"/>
      <point x="670" y="351"/>
      <point x="542" y="426"/>
      <point x="378" y="474" type="qcurve" smooth="yes"/>
      <point x="214" y="522"/>
      <point x="89" y="650"/>
    </contour>
    <contour>
      <point x="534" y="884" type="line"/>
      <point x="608" y="1000" type="line"/>
      <point x="749" y="1000" type="line"/>
      <point x="749" y="674" type="line"/>
      <point x="573" y="674" type="line"/>
    </contour>
  </outline>
</glyph>
<glyph name="braceright" format="1">
  <advance width="693"/>
  <unicode hex="007D"/>
  <outline>
    <contour>
      <point x="633" y="441" type="line"/>
      <point x="398" y="441" type="line"/>
      <point x="398" y="364" type="line"/>
      <point x="398" y="246"/>
      <point x="517" y="-50"/>
      <point x="517" y="-168" type="qcurve" smooth="yes"/>
      <point x="517" y="-327"/>
      <point x="341" y="-495"/>
      <point x="185" y="-495" type="qcurve" smooth="yes"/>
      <point x="114" y="-495"/>
      <point x="52" y="-487"/>
      <point x="15" y="-484" type="qcurve"/>
      <point x="15" y="-267" type="line"/>
      <point x="67" y="-268"/>
      <point x="130" y="-268"/>
      <point x="179" y="-268" type="qcurve" smooth="yes"/>
      <point x="261" y="-268"/>
      <point x="357" y="-184"/>
      <point x="357" y="-98" type="qcurve" smooth="yes"/>
      <point x="357" y="-8"/>
      <point x="241" y="257"/>
      <point x="241" y="337" type="qcurve" smooth="yes"/>
      <point x="241" y="399"/>
      <point x="294" y="515"/>
      <point x="357" y="545" type="qcurve"/>
      <point x="306" y="563"/>
      <point x="241" y="674"/>
      <point x="241" y="758" type="qcurve" smooth="yes"/>
      <point x="241" y="838"/>
      <point x="347" y="1024"/>
      <point x="347" y="1113" type="qcurve" smooth="yes"/>
      <point x="347" y="1200"/>
      <point x="256" y="1282"/>
      <point x="174" y="1282" type="qcurve" smooth="yes"/>
      <point x="125" y="1282"/>
      <point x="62" y="1282"/>
      <point x="10" y="1281" type="qcurve"/>
      <point x="10" y="1500" type="line"/>
      <point x="47" y="1503"/>
      <point x="109" y="1510"/>
      <point x="180" y="1510" type="qcurve" smooth="yes"/>
      <point x="336" y="1510"/>
      <point x="507" y="1353"/>
      <point x="507" y="1204" type="qcurve" smooth="yes"/>
      <point x="507" y="1093"/>
      <point x="397" y="875"/>
      <point x="397" y="764" type="qcurve" smooth="yes"/>
      <point x="397" y="711"/>
      <point x="446" y="657"/>
      <point x="502" y="654" type="qcurve" smooth="yes"/>
      <point x="633" y="644" type="line"/>
    </contour>
  </outline>
</glyph>
